<?xml version="1.0" encoding="UTF-8"?>
<svg xmlns="http://www.w3.org/2000/svg" xmlns:xlink="http://www.w3.org/1999/xlink" width="0" height="0">
<defs>
<symbol id="brand-facebook" viewBox="0 0 24 24" fill="none" stroke="currentColor" stroke-width="2" stroke-linecap="round" stroke-linejoin="round" role="img" aria-label="Facebook Icon"><path stroke="none" d="M0 0h24v24H0z" fill="none" />
  <path d="M7 10v4h3v7h4v-7h3l1 -4h-4v-2a1 1 0 0 1 1 -1h3v-4h-3a5 5 0 0 0 -5 5v2h-3" /></symbol>
<symbol id="brand-github" viewBox="0 0 24 24" fill="none" stroke="currentColor" stroke-width="2" stroke-linecap="round" stroke-linejoin="round" role="img" aria-label="GitHub Icon"><path stroke="none" d="M0 0h24v24H0z" fill="none" />
  <path d="M9 19c-4.3 1.4 -4.3 -2.5 -6 -3m12 5v-3.5c0 -1 .1 -1.4 -.5 -2c2.8 -.3 5.5 -1.4 5.5 -6a4.6 4.6 0 0 0 -1.3 -3.2a4.2 4.2 0 0 0 -.1 -3.2s-1.1 -.3 -3.5 1.3a12.3 12.3 0 0 0 -6.2 0c-2.4 -1.6 -3.5 -1.3 -3.5 -1.3a4.2 4.2 0 0 0 -.1 3.2a4.6 4.6 0 0 0 -1.3 3.2c0 4.6 2.7 5.7 5.5 6c-.6 .6 -.6 1.2 -.5 2v3.5" /></symbol>
<symbol id="brand-hackernews" viewBox="0 0 24 24" fill="none" stroke="currentColor" stroke-width="2" stroke-linecap="round" stroke-linejoin="round" role="img" aria-label="HackerNews Icon"><path stroke="none" d="M0 0h24v24H0z" fill="none" />
  <path d="M4 4m0 2a2 2 0 0 1 2 -2h12a2 2 0 0 1 2 2v12a2 2 0 0 1 -2 2h-12a2 2 0 0 1 -2 -2z" />
  <path d="M8 7l4 6l4 -6" />
  <path d="M12 17l0 -4" /></symbol>
<symbol id="brand-linkedin" viewBox="0 0 24 24" fill="none" stroke="currentColor" stroke-width="2" stroke-linecap="round" stroke-linejoin="round" role="img" aria-label="LinkedIn Icon"><path d="M16 8a6 6 0 0 1 6 6v7h-4v-7a2 2 0 0 0-2-2 2 2 0 0 0-2 2v7h-4v-7a6 6 0 0 1 6-6z" />
  <rect width="4" height="12" x="2" y="9" />
  <circle cx="4" cy="4" r="2" /></symbol>
<symbol id="brand-reddit" viewBox="0 0 24 24" fill="none" stroke="currentColor" stroke-width="2" stroke-linecap="round" stroke-linejoin="round" role="img" aria-label="Reddit Icon"><path stroke="none" d="M0 0h24v24H0z" fill="none" />
  <path d="M12 8c2.648 0 5.028 .826 6.675 2.14a2.5 2.5 0 0 1 2.326 4.36c0 3.59 -4.03 6.5 -9 6.5c-4.875 0 -8.845 -2.8 -9 -6.294l-1 -.206a2.5 2.5 0 0 1 2.326 -4.36c1.646 -1.313 4.026 -2.14 6.674 -2.14z" />
  <path d="M12 8l1 -5l6 1" />
  <path d="M19 4m-1 0a1 1 0 1 0 2 0a1 1 0 1 0 -2 0" />
  <circle cx="9" cy="13" r=".5" fill="currentColor" />
  <circle cx="15" cy="13" r=".5" fill="currentColor" />
  <path d="M10 17c.667 .333 1.333 .5 2 .5s1.333 -.167 2 -.5" /></symbol>
<symbol id="brand-whatsapp" viewBox="0 0 24 24" fill="none" stroke="currentColor" stroke-width="2" stroke-linecap="round" stroke-linejoin="round" role="img" aria-label="WhatsApp Icon"><path stroke="none" d="M0 0h24v24H0z" fill="none" />
  <path d="M3 21l1.65 -3.8a9 9 0 1 1 3.4 2.9l-5.05 .9" />
  <path d="M9 10a.5 .5 0 0 0 1 0v-1a.5 .5 0 0 0 -1 0v1a5 5 0 0 0 5 5h1a.5 .5 0 0 0 0 -1h-1a.5 .5 0 0 0 0 1" /></symbol>
<symbol id="brand-x" viewBox="0 0 24 24" fill="none" stroke="currentColor" stroke-width="2" stroke-linecap="round" stroke-linejoin="round" role="img" aria-label="X Icon"><path stroke="none" d="M0 0h24v24H0z" fill="none" />
  <path d="M4 4l11.733 16h4.267l-11.733 -16z" />
  <path d="M4 20l6.768 -6.768m2.46 -2.46l6.772 -6.772" /></symbol>
</defs>
</svg>
